<svg width="22" height="19" viewBox="0 0 22 19" fill="none" xmlns="http://www.w3.org/2000/svg">
<path d="M10.5242 5.97917L13.5103 8.9853L13.5245 8.82784C13.5245 7.24841 12.2495 5.96485 10.6806 5.96485L10.5242 5.97917Z" fill="#ABB1BD"/>
<path d="M10.6806 4.05623C13.297 4.05623 15.4205 6.19394 15.4205 8.82789C15.4205 9.44343 15.2973 10.0303 15.084 10.5695L17.8568 13.3609C19.2883 12.1585 20.4164 10.6029 21.1132 8.82789C19.4684 4.6384 15.4253 1.67042 10.6806 1.67042C9.35345 1.67042 8.08319 1.90899 6.90295 2.33844L8.95059 4.395C9.48614 4.18506 10.0692 4.05623 10.6806 4.05623Z" fill="#ABB1BD"/>
<path d="M1.20077 1.45566L3.36217 3.63153L3.79351 4.06577C2.22935 5.29685 0.992232 6.93354 0.252808 8.82785C1.89283 13.0173 5.94069 15.9853 10.6806 15.9853C12.15 15.9853 13.553 15.699 14.8375 15.1789L15.2404 15.5845L18.0038 18.3711L19.2125 17.1591L2.40945 0.238895L1.20077 1.45566ZM6.44313 6.72834L7.90776 8.20278C7.8651 8.40798 7.83667 8.61313 7.83667 8.82785C7.83667 10.4073 9.11168 11.6908 10.6806 11.6908C10.8939 11.6908 11.0977 11.6622 11.2968 11.6193L12.7614 13.0937C12.131 13.4086 11.4295 13.5995 10.6806 13.5995C8.06418 13.5995 5.94069 11.4618 5.94069 8.82785C5.94069 8.07395 6.1303 7.36773 6.44313 6.72834Z" fill="#ABB1BD"/>
</svg>
