<svg xmlns="http://www.w3.org/2000/svg" width="26" height="27" viewBox="0 0 26 27" fill="none">
  <path d="M24.16 14.0577C24.16 13.1224 24.0832 12.4399 23.9171 11.7321H13.1159V15.9535H19.456C19.3282 17.0025 18.6379 18.5824 17.104 19.644L17.0825 19.7853L20.4976 22.4013L20.7343 22.4246C22.9072 20.4403 24.16 17.5207 24.16 14.0577Z" fill="#4285F4"/>
  <path d="M13.1152 25.1801C16.2213 25.1801 18.8289 24.1689 20.7335 22.4248L17.1033 19.6441C16.1318 20.314 14.828 20.7816 13.1152 20.7816C10.073 20.7816 7.49099 18.7974 6.57057 16.0547L6.43566 16.066L2.88457 18.7834L2.83813 18.9111C4.72991 22.6269 8.61576 25.1801 13.1152 25.1801Z" fill="#34A853"/>
  <path d="M6.57126 16.0547C6.3284 15.347 6.18784 14.5886 6.18784 13.805C6.18784 13.0214 6.3284 12.263 6.55848 11.5553L6.55205 11.4045L2.95645 8.64352L2.83881 8.69885C2.05911 10.2408 1.61172 11.9724 1.61172 13.805C1.61172 15.6376 2.05911 17.3691 2.83881 18.9111L6.57126 16.0547Z" fill="#FBBC05"/>
  <path d="M13.1153 6.82836C15.2755 6.82836 16.7326 7.75099 17.5635 8.52202L20.8103 5.38755C18.8163 3.55492 16.2214 2.43005 13.1153 2.43005C8.6158 2.43005 4.72992 4.98309 2.83813 8.69889L6.55782 11.5553C7.49102 8.81269 10.0731 6.82836 13.1153 6.82836Z" fill="#EB4335"/>
</svg>