<svg width="162" height="17" viewBox="0 0 162 17" fill="none" xmlns="http://www.w3.org/2000/svg">
<path d="M5.064 2.19515C6.00667 2.19515 6.8 2.51248 7.444 3.14715C8.088 3.78181 8.41 4.56115 8.41 5.48515C8.41 6.40915 8.088 7.18848 7.444 7.82315C6.8 8.45781 6.00667 8.77515 5.064 8.77515H3.342V11.9951H1.41V2.19515H5.064ZM5.064 6.96915C5.47467 6.96915 5.81533 6.82915 6.086 6.54915C6.35667 6.25981 6.492 5.90515 6.492 5.48515C6.492 5.05581 6.35667 4.70115 6.086 4.42115C5.81533 4.14115 5.47467 4.00115 5.064 4.00115H3.342V6.96915H5.064ZM15.083 11.1271C14.3643 11.8365 13.487 12.1911 12.451 12.1911C11.415 12.1911 10.5376 11.8365 9.81897 11.1271C9.10964 10.4085 8.75497 9.53115 8.75497 8.49515C8.75497 7.45915 9.10964 6.58648 9.81897 5.87715C10.5376 5.15848 11.415 4.79915 12.451 4.79915C13.487 4.79915 14.3643 5.15848 15.083 5.87715C15.8016 6.58648 16.161 7.45915 16.161 8.49515C16.161 9.53115 15.8016 10.4085 15.083 11.1271ZM11.093 9.88115C11.457 10.2451 11.9096 10.4271 12.451 10.4271C12.9923 10.4271 13.445 10.2451 13.809 9.88115C14.173 9.51715 14.355 9.05515 14.355 8.49515C14.355 7.93515 14.173 7.47315 13.809 7.10915C13.445 6.74515 12.9923 6.56315 12.451 6.56315C11.9096 6.56315 11.457 6.74515 11.093 7.10915C10.7383 7.47315 10.561 7.93515 10.561 8.49515C10.561 9.05515 10.7383 9.51715 11.093 9.88115ZM25.04 4.99515H26.958L24.732 11.9951H23.01L21.722 7.75315L20.434 11.9951H18.712L16.486 4.99515H18.404L19.594 9.29315L20.868 4.99515H22.576L23.85 9.30715L25.04 4.99515ZM29.184 9.23715C29.4267 10.1145 30.0847 10.5531 31.158 10.5531C31.8487 10.5531 32.3714 10.3198 32.726 9.85315L34.182 10.6931C33.4914 11.6918 32.474 12.1911 31.13 12.1911C29.9727 12.1911 29.044 11.8411 28.344 11.1411C27.644 10.4411 27.294 9.55915 27.294 8.49515C27.294 7.44048 27.6394 6.56315 28.33 5.86315C29.0207 5.15381 29.9074 4.79915 30.99 4.79915C32.0167 4.79915 32.8614 5.15381 33.524 5.86315C34.196 6.57248 34.532 7.44981 34.532 8.49515C34.532 8.72848 34.5087 8.97581 34.462 9.23715H29.184ZM29.156 7.83715H32.726C32.6234 7.36115 32.4087 7.00648 32.082 6.77315C31.7647 6.53981 31.4007 6.42315 30.99 6.42315C30.5047 6.42315 30.1034 6.54915 29.786 6.80115C29.4687 7.04381 29.2587 7.38915 29.156 7.83715ZM37.5988 6.19915C37.7668 5.75115 38.0421 5.41515 38.4248 5.19115C38.8168 4.96715 39.2508 4.85515 39.7268 4.85515V6.87115C39.1761 6.80581 38.6815 6.91781 38.2428 7.20715C37.8135 7.49648 37.5988 7.97715 37.5988 8.64915V11.9951H35.7928V4.99515H37.5988V6.19915ZM42.0493 9.23715C42.2919 10.1145 42.9499 10.5531 44.0233 10.5531C44.7139 10.5531 45.2366 10.3198 45.5913 9.85315L47.0473 10.6931C46.3566 11.6918 45.3393 12.1911 43.9953 12.1911C42.8379 12.1911 41.9093 11.8411 41.2093 11.1411C40.5093 10.4411 40.1593 9.55915 40.1593 8.49515C40.1593 7.44048 40.5046 6.56315 41.1953 5.86315C41.8859 5.15381 42.7726 4.79915 43.8553 4.79915C44.8819 4.79915 45.7266 5.15381 46.3893 5.86315C47.0613 6.57248 47.3973 7.44981 47.3973 8.49515C47.3973 8.72848 47.3739 8.97581 47.3273 9.23715H42.0493ZM42.0213 7.83715H45.5913C45.4886 7.36115 45.2739 7.00648 44.9473 6.77315C44.6299 6.53981 44.2659 6.42315 43.8553 6.42315C43.3699 6.42315 42.9686 6.54915 42.6513 6.80115C42.3339 7.04381 42.1239 7.38915 42.0213 7.83715ZM53.9093 2.19515H55.7153V11.9951H53.9093V11.1691C53.3773 11.8505 52.6213 12.1911 51.6413 12.1911C50.6987 12.1911 49.8913 11.8365 49.2193 11.1271C48.5567 10.4085 48.2253 9.53115 48.2253 8.49515C48.2253 7.45915 48.5567 6.58648 49.2193 5.87715C49.8913 5.15848 50.6987 4.79915 51.6413 4.79915C52.6213 4.79915 53.3773 5.13981 53.9093 5.82115V2.19515ZM50.5773 9.92315C50.9507 10.2871 51.4173 10.4691 51.9773 10.4691C52.5373 10.4691 52.9993 10.2871 53.3633 9.92315C53.7273 9.54981 53.9093 9.07381 53.9093 8.49515C53.9093 7.91648 53.7273 7.44515 53.3633 7.08115C52.9993 6.70781 52.5373 6.52115 51.9773 6.52115C51.4173 6.52115 50.9507 6.70781 50.5773 7.08115C50.2133 7.44515 50.0313 7.91648 50.0313 8.49515C50.0313 9.07381 50.2133 9.54981 50.5773 9.92315ZM64.941 4.79915C65.8837 4.79915 66.6863 5.15848 67.349 5.87715C68.021 6.58648 68.357 7.45915 68.357 8.49515C68.357 9.53115 68.021 10.4085 67.349 11.1271C66.6863 11.8365 65.8837 12.1911 64.941 12.1911C63.961 12.1911 63.205 11.8505 62.673 11.1691V11.9951H60.867V2.19515H62.673V5.82115C63.205 5.13981 63.961 4.79915 64.941 4.79915ZM63.219 9.92315C63.583 10.2871 64.045 10.4691 64.605 10.4691C65.165 10.4691 65.627 10.2871 65.991 9.92315C66.3643 9.54981 66.551 9.07381 66.551 8.49515C66.551 7.91648 66.3643 7.44515 65.991 7.08115C65.627 6.70781 65.165 6.52115 64.605 6.52115C64.045 6.52115 63.583 6.70781 63.219 7.08115C62.855 7.44515 62.673 7.91648 62.673 8.49515C62.673 9.07381 62.855 9.54981 63.219 9.92315ZM73.9213 4.99515H75.8533L73.3053 11.9951C72.9413 13.0031 72.4559 13.7311 71.8493 14.1791C71.2519 14.6365 70.5053 14.8418 69.6093 14.7951V13.1151C70.0946 13.1245 70.4773 13.0218 70.7573 12.8071C71.0466 12.5925 71.2753 12.2471 71.4433 11.7711L68.5733 4.99515H70.5473L72.3673 9.69915L73.9213 4.99515Z" fill="#828A9B"/>
<path d="M93.6621 16.7391L89.8889 10.9186H89.6079H87.1894V16.7391H84.5V-0.00967407H89.2165C91.0831 -0.00967407 92.5884 0.461981 93.7123 1.41532C94.8362 2.36867 95.3982 3.68328 95.3982 5.36919C95.3982 6.39278 95.1774 7.35616 94.7459 8.22922C94.3044 9.11232 93.622 9.79471 92.6887 10.2664L96.763 16.729H93.6621V16.7391ZM87.1995 8.3396H89.5878C90.6616 8.3396 91.4443 8.04858 91.926 7.45651C92.4077 6.86443 92.6486 6.20211 92.6486 5.46954C92.6486 5.03803 92.5583 4.60651 92.3676 4.16497C92.187 3.72342 91.8658 3.35212 91.4243 3.04103C90.9827 2.72993 90.4007 2.56937 89.6782 2.56937H87.1894V8.3396H87.1995Z" fill="white"/>
<path d="M105.905 14.0195L107.079 15.9262C106.557 16.2474 105.995 16.5083 105.403 16.6989C104.801 16.8896 104.229 16.99 103.677 16.99C102.553 16.99 101.59 16.7692 100.767 16.3276C99.9442 15.8861 99.322 15.2739 98.8804 14.4912C98.4389 13.7084 98.2281 12.8153 98.2281 11.8018C98.2281 10.8484 98.469 9.97536 98.9607 9.18258C99.4524 8.3898 100.115 7.74755 100.958 7.28593C101.801 6.81427 102.724 6.58347 103.717 6.58347C105.032 6.58347 106.136 6.97484 107.009 7.74755C107.882 8.52025 108.464 9.61409 108.755 11.0291L101.259 13.5579C101.52 13.9593 101.861 14.2604 102.292 14.4812C102.724 14.6919 103.196 14.8023 103.717 14.8023C104.44 14.7822 105.173 14.5313 105.905 14.0195ZM101.52 9.44349C101.008 10.0155 100.747 10.7481 100.747 11.6512C100.747 11.8218 100.757 11.9523 100.767 12.0426L105.875 10.2262C105.674 9.75458 105.383 9.36321 105.002 9.05212C104.621 8.74103 104.119 8.5905 103.507 8.5905C102.704 8.5905 102.042 8.88152 101.52 9.44349Z" fill="white"/>
<path d="M120.516 7.00494L115.178 16.99H115.067L109.478 7.00494H112.538L115.208 12.5745L117.646 7.00494H120.516Z" fill="white"/>
<path d="M122.252 9.12236C122.724 8.32958 123.366 7.69736 124.199 7.24578C125.032 6.79419 125.975 6.56339 127.029 6.56339C128.083 6.56339 129.026 6.79419 129.849 7.24578C130.672 7.69736 131.304 8.31955 131.746 9.11233C132.187 9.90511 132.408 10.7882 132.408 11.7717C132.408 12.7551 132.187 13.6382 131.746 14.431C131.304 15.2238 130.672 15.8459 129.849 16.3076C129.026 16.7692 128.083 17 127.009 17C125.965 17 125.032 16.7892 124.199 16.3678C123.366 15.9463 122.724 15.3442 122.252 14.5514C121.781 13.7586 121.55 12.8354 121.55 11.7817C121.55 10.7982 121.781 9.92517 122.252 9.12236ZM124.952 13.9894C125.484 14.5815 126.156 14.8725 126.949 14.8725C127.782 14.8725 128.454 14.5815 128.986 13.9995C129.518 13.4174 129.779 12.6849 129.779 11.7917C129.779 10.8986 129.518 10.166 128.986 9.57394C128.454 8.98187 127.782 8.69085 126.949 8.69085C126.156 8.69085 125.484 8.9919 124.952 9.60405C124.41 10.2062 124.149 10.9387 124.149 11.8018C124.149 12.6648 124.42 13.3973 124.952 13.9894Z" fill="white"/>
<path d="M145.695 16.9197L141.42 9.97536C141.098 10.0356 140.687 10.0657 140.195 10.0657H137.666V16.9197H136.542V0.582428H140.266C141.129 0.582428 141.951 0.753026 142.734 1.08419C143.527 1.42538 144.169 1.93718 144.671 2.62961C145.173 3.32203 145.424 4.17502 145.424 5.20865C145.424 6.20213 145.193 7.1053 144.731 7.90811C144.27 8.71093 143.557 9.30301 142.594 9.66427L147.009 16.9097H145.695V16.9197ZM143.316 7.87801C143.948 7.14544 144.27 6.27238 144.27 5.25882C144.27 4.61657 144.109 4.01446 143.798 3.46253C143.487 2.91059 143.035 2.46904 142.453 2.14791C141.871 1.82679 141.199 1.66623 140.426 1.66623H137.666V8.98188H140.125C141.61 8.98188 142.674 8.62062 143.316 7.87801Z" fill="white"/>
<path d="M161.179 0.582428V1.66623H152.227V8.15899H160.276V9.24279H152.227V15.8459H161.5V16.9197H151.104V0.582428H161.179Z" fill="white"/>
</svg>
